<?xml version="1.0" encoding="utf-8"?>
<!-- Generator: Adobe Illustrator 17.1.0, SVG Export Plug-In . SVG Version: 6.00 Build 0)  -->
<!DOCTYPE svg PUBLIC "-//W3C//DTD SVG 1.1//EN" "http://www.w3.org/Graphics/SVG/1.1/DTD/svg11.dtd">
<svg version="1.1" xmlns="http://www.w3.org/2000/svg" xmlns:xlink="http://www.w3.org/1999/xlink" x="0px" y="0px"
	 viewBox="0 0 847.7 340.1" enable-background="new 0 0 847.7 340.1" xml:space="preserve">
<g id="Layer_2_copy_2">
	<path fill="#231F20" d="M431.2,11.1c-22.5-1.5-44.1-5.8-50.9-10.5c-4.3-3,1,4.3,9.7,13.7c-16.4-2-30.3-5.4-35.5-9
		c-5.5-3.8,4.7,9,17.4,21.6c-8-1.8-14.3-3.8-17.4-6c-5.2-3.6,3.7,7.7,15.5,19.7c-45.5,35.4-59.6,80.9-73.2,97.8
		c-16,19.9-38.2,69.9-123.7,55.4c21.9,13.3,69.9,27.7,94.1,15.2c24.2-12.5,57.4-28.1,66.7-11.7c9.4,16.4-21.1,50.7-58.9,48.4
		c-37.9-2.3-121.4-33.6-185-15.2c25,0.4,47.6-2.7,98.4,25.8c50.7,28.5,91.8,41.9,121.8,43.8c32.2,2,77.8-26.5,62.1,3.1
		c-11.6,21.7-55.9,37.1-90.4,36.7c35,2.3,195.8-9.4,202.4-140.9c6.6-131.5,20.7-147.1,51.9-157.7C528.3,34.1,484.7,1.4,431.2,11.1z
		 M474,51.7c-6.2,0-11.3-5-11.3-11.3c0-6.2,5-11.3,11.3-11.3c6.2,0,11.3,5,11.3,11.3C485.3,46.6,480.2,51.7,474,51.7z"/>
	<path fill="#FFF200" d="M401.2,11.1c-22.5-1.5-44.1-5.8-50.9-10.5c-4.3-3,1,4.3,9.7,13.7c-16.4-2-30.3-5.4-35.5-9
		c-5.5-3.8,4.7,9,17.4,21.6c-8-1.8-14.3-3.8-17.4-6c-5.2-3.6,3.7,7.7,15.5,19.7c-45.5,35.4-59.6,80.9-73.2,97.8
		c-16,19.9-38.2,69.9-123.7,55.4c21.9,13.3,69.9,27.7,94.1,15.2c24.2-12.5,57.4-28.1,66.7-11.7c9.4,16.4-21.1,50.7-58.9,48.4
		c-37.9-2.3-121.4-33.6-185-15.2c25,0.4,47.6-2.7,98.4,25.8c50.7,28.5,91.8,41.9,121.8,43.8c32.2,2,77.8-26.5,62.1,3.1
		c-11.6,21.7-55.9,37.1-90.4,36.7c35,2.3,195.8-9.4,202.4-140.9c6.6-131.5,20.7-147.1,51.9-157.7C498.3,34.1,454.7,1.4,401.2,11.1z
		 M444,51.7c-6.2,0-11.3-5-11.3-11.3c0-6.2,5-11.3,11.3-11.3c6.2,0,11.3,5,11.3,11.3C455.3,46.6,450.2,51.7,444,51.7z"/>
	<path fill="#EC008C" d="M371.2,11.1c-22.5-1.5-44.1-5.8-50.9-10.5c-4.3-3,1,4.3,9.7,13.7c-16.4-2-30.3-5.4-35.5-9
		c-5.5-3.8,4.7,9,17.4,21.6c-8-1.8-14.3-3.8-17.4-6c-5.2-3.6,3.7,7.7,15.5,19.7c-45.5,35.4-59.6,80.9-73.2,97.8
		c-16,19.9-38.2,69.9-123.7,55.4c21.9,13.3,69.9,27.7,94.1,15.2c24.2-12.5,57.4-28.1,66.7-11.7c9.4,16.4-21.1,50.7-58.9,48.4
		c-37.9-2.3-121.4-33.6-185-15.2c25,0.4,47.6-2.7,98.4,25.8c50.7,28.5,91.8,41.9,121.8,43.8c32.2,2,77.8-26.5,62.1,3.1
		c-11.6,21.7-55.9,37.1-90.4,36.7c35,2.3,195.8-9.4,202.4-140.9c6.6-131.5,20.7-147.1,51.9-157.7C468.3,34.1,424.7,1.4,371.2,11.1z
		 M414,51.7c-6.2,0-11.3-5-11.3-11.3c0-6.2,5-11.3,11.3-11.3c6.2,0,11.3,5,11.3,11.3C425.3,46.6,420.2,51.7,414,51.7z"/>
	<path fill="#00AEEF" d="M341.2,11.1c-22.5-1.5-44.1-5.8-50.9-10.5c-4.3-3,1,4.3,9.7,13.7c-16.4-2-30.3-5.4-35.5-9
		c-5.5-3.8,4.7,9,17.4,21.6c-8-1.8-14.3-3.8-17.4-6c-5.2-3.6,3.7,7.7,15.5,19.7c-45.5,35.4-59.6,80.9-73.2,97.8
		c-16,19.9-38.2,69.9-123.7,55.4c21.9,13.3,69.9,27.7,94.1,15.2c24.2-12.5,57.4-28.1,66.7-11.7c9.4,16.4-21.1,50.7-58.9,48.4
		c-37.9-2.3-121.4-33.6-185-15.2c25,0.4,47.6-2.7,98.4,25.8c50.7,28.5,91.8,41.9,121.8,43.8c32.2,2,77.8-26.5,62.1,3.1
		c-11.6,21.7-55.9,37.1-90.4,36.7c35,2.3,195.8-9.4,202.4-140.9c6.6-131.5,20.7-147.1,51.9-157.7C438.3,34.1,394.7,1.4,341.2,11.1z
		 M384,51.7c-6.2,0-11.3-5-11.3-11.3c0-6.2,5-11.3,11.3-11.3c6.2,0,11.3,5,11.3,11.3C395.3,46.6,390.2,51.7,384,51.7z"/>
</g>
<g id="Layer_3_copy_2">
	
		<text transform="matrix(1 0 0 1 616.0948 335.7226)" fill="#231F20" stroke="#FFFFFF" stroke-miterlimit="10" font-family="'BigNoodleTitling'" font-size="87.7492">printers</text>
	<g>
		<path fill="#231F20" stroke="#FFFFFF" stroke-miterlimit="10" d="M300.1,86.5h41.3c18.2,0,27.4,9.7,27.4,29v50.2
			c0,19.2-9,28.8-27.1,28.8h-18.9v61.3h-22.6V86.5z M322.8,174h14.4c6,0,9-3.3,9-9.9v-47.2c0-6.6-3.4-9.9-10.1-9.9h-13.2V174z"/>
		<path fill="#231F20" stroke="#FFFFFF" stroke-miterlimit="10" d="M437.2,255.9V179h-27.8v76.9h-22.6V86.5h22.6v72h27.8v-72h22.6
			v169.4H437.2z"/>
		<path fill="#231F20" stroke="#FFFFFF" stroke-miterlimit="10" d="M507.2,255.9c-18.2,0-27.4-9.6-27.4-28.8V115.5
			c0-19.3,9-29,27.1-29h21.7c18.1,0,27.1,9.7,27.1,29v111.6c0,19.2-9.1,28.8-27.4,28.8H507.2z M512.7,235.3h11.6c6,0,9-3.3,9-9.9
			V116.9c0-6.6-3.4-9.9-10.1-9.9h-10.6c-6.6,0-9.9,3.3-9.9,9.9v108.5C502.5,232,505.9,235.3,512.7,235.3z"/>
		<path fill="#231F20" stroke="#FFFFFF" stroke-miterlimit="10" d="M575.9,255.9V86.5H632V107h-33.5v51.4h29.7V179h-29.7v56.4H632
			v20.5H575.9z"/>
		<path fill="#231F20" stroke="#FFFFFF" stroke-miterlimit="10" d="M695.3,168.3V86.5h22.6v169.4h-22.6v-33.7L671,145v110.9h-22.6
			V86.5H671L695.3,168.3z"/>
		<path fill="#231F20" stroke="#FFFFFF" stroke-miterlimit="10" d="M739.1,255.9V86.5h22.6v169.4H739.1z"/>
		<path fill="#231F20" stroke="#FFFFFF" stroke-miterlimit="10" d="M847.2,255.9h-21.9l-12.7-64.4H812l-15.3,64.4h-21l21.5-85.6
			l-20.1-83.8h22.2L812,149h0.5l14.2-62.5h21l-20.3,83.8L847.2,255.9z"/>
	</g>
</g>
</svg>
